HIERARCHY
ROOT root
{
	OFFSET 0.000000 0.000000 0.000000
	CHANNELS 6 Xposition Yposition Zposition Zrotation Yrotation Xrotation
	JOINT lhip
	{
		OFFSET 0.058581 -0.082280 -0.017664
		CHANNELS 3 Zrotation Yrotation Xrotation
		JOINT lknee
		{
			OFFSET 0.043451 -0.386469 0.008037
			CHANNELS 3 Zrotation Yrotation Xrotation
			JOINT lankle
			{
				OFFSET -0.014790 -0.426874 -0.037428
				CHANNELS 3 Zrotation Yrotation Xrotation
				JOINT ltoe
				{
					OFFSET 0.041054 -0.060286 0.122042
					CHANNELS 3 Zrotation Yrotation Xrotation
					End Site
					{
						OFFSET 0.000000 0.000000 0.000000
					}
				}
			}
		}
	}
	JOINT rhip
	{
		OFFSET -0.060310 -0.090513 -0.013543
		CHANNELS 3 Zrotation Yrotation Xrotation
		JOINT rknee
		{
			OFFSET -0.043257 -0.383688 -0.004843
			CHANNELS 3 Zrotation Yrotation Xrotation
			JOINT rankle
			{
				OFFSET 0.019056 -0.420046 -0.034562
				CHANNELS 3 Zrotation Yrotation Xrotation
				JOINT rtoe
				{
					OFFSET -0.034840 -0.062106 0.130323
					CHANNELS 3 Zrotation Yrotation Xrotation
					End Site
					{
						OFFSET 0.000000 0.000000 0.000000
					}
				}
			}
		}
	}
	JOINT lowerback
	{
		OFFSET 0.004439 0.124404 -0.038385
		CHANNELS 3 Zrotation Yrotation Xrotation
		JOINT upperback
		{
			OFFSET 0.004488 0.137956 0.026820
			CHANNELS 3 Zrotation Yrotation Xrotation
			JOINT chest
			{
				OFFSET -0.002265 0.056032 0.002855
				CHANNELS 3 Zrotation Yrotation Xrotation
				JOINT lowerneck
				{
					OFFSET -0.013390 0.211636 -0.033468
					CHANNELS 3 Zrotation Yrotation Xrotation
					JOINT upperneck
					{
						OFFSET 0.010113 0.088937 0.050410
						CHANNELS 3 Zrotation Yrotation Xrotation
						End Site
						{
							OFFSET 0.000000 0.000000 0.000000
						}
					}
				}
				JOINT lclavicle
				{
					OFFSET 0.071702 0.114000 -0.018898
					CHANNELS 3 Zrotation Yrotation Xrotation
					JOINT lshoulder
					{
						OFFSET 0.122921 0.045205 -0.019046
						CHANNELS 3 Zrotation Yrotation Xrotation
						JOINT lelbow
						{
							OFFSET 0.255332 -0.015649 -0.022946
							CHANNELS 3 Zrotation Yrotation Xrotation
							JOINT lwrist
							{
								OFFSET 0.265709 0.012698 -0.007375
								CHANNELS 3 Zrotation Yrotation Xrotation
								End Site
								{
									OFFSET 0.000000 0.000000 0.000000
								}
							}
						}
					}
				}
				JOINT rclavicle
				{
					OFFSET -0.082954 0.112472 -0.023707
					CHANNELS 3 Zrotation Yrotation Xrotation
					JOINT rshoulder
					{
						OFFSET -0.113228 0.046853 -0.008472
						CHANNELS 3 Zrotation Yrotation Xrotation
						JOINT relbow
						{
							OFFSET -0.260127 -0.014369 -0.031269
							CHANNELS 3 Zrotation Yrotation Xrotation
							JOINT rwrist
							{
								OFFSET -0.269108 0.006794 -0.006027
								CHANNELS 3 Zrotation Yrotation Xrotation
								End Site
								{
									OFFSET 0.000000 0.000000 0.000000
								}
							}
						}
					}
				}
			}
		}
	}
}
MOTION
Frames: 11
Frame Time: 0.033333
0.500194 0.205756 0.983087 90.654281 4.331885 99.697291 7.713280 4.275837 -8.137972 3.027980 4.977770 -6.085331 -3.011403 4.252380 -2.777368 0.000000 -0.000000 0.000000 -0.827578 -1.833389 -9.590329 -3.451224 -7.224922 -0.561605 6.340572 -2.704783 -2.626046 0.000000 -0.000000 0.000000 -1.623149 0.867801 -3.974905 3.133613 -3.472508 -4.555504 1.347193 0.626262 -10.723348 1.181353 -14.714642 28.014895 11.259880 -16.072880 0.412699 -13.983416 6.842213 11.289962 -68.688924 -9.718595 4.276859 14.059715 -13.443507 13.550386 -9.250385 -8.944982 -0.070249 17.224089 -4.786600 8.884345 62.465826 9.827421 2.576034 -9.294738 10.250590 10.623057 4.502953 0.586772 -9.093716 
0.500077 0.205455 0.983206 90.674841 4.291850 99.404101 7.678654 4.042541 -7.722308 3.050377 4.479103 -6.294231 -2.847039 5.000710 -2.690324 0.000000 -0.000000 0.000000 -0.868143 -1.969089 -9.171141 -3.362550 -6.346299 -0.795687 6.563833 -3.531091 -2.516248 0.000000 -0.000000 0.000000 -1.232240 0.812762 -3.143514 3.175725 -3.079282 -5.883365 1.363039 0.100870 -8.035282 1.571079 -15.027923 22.193899 9.361780 -16.130409 0.318480 -15.637118 8.693724 8.506751 -66.975840 -9.783465 5.446686 12.840659 -13.508490 14.287669 -8.217990 -8.784719 -0.075567 17.534562 -5.616498 5.957937 62.149869 9.711830 5.206230 -9.556253 10.090888 9.338727 4.547034 0.325534 -8.104189 
0.499906 0.204402 0.983555 90.834823 4.142671 99.477970 7.455579 3.175477 -7.714588 3.191044 4.087533 -6.517518 -2.389322 6.248882 -2.530169 0.000000 -0.000000 0.000000 -1.047772 -1.721704 -9.034491 -3.198760 -5.187858 -1.151617 6.589156 -5.212744 -2.381325 0.000000 -0.000000 0.000000 -0.887324 0.541737 -3.311978 3.456900 -2.460040 -6.854260 1.249573 -0.873298 -3.734289 2.554030 -15.204091 12.330974 5.962218 -16.337454 0.850677 -18.442353 11.756926 3.505204 -64.388889 -10.207298 7.997744 10.930558 -13.462535 14.735546 -7.388104 -8.541231 0.504919 18.274134 -6.940336 1.184543 61.467265 10.235859 10.378263 -9.720846 9.033685 6.372582 4.800689 0.113663 -6.563027 
0.501140 0.203222 0.983550 91.064885 4.175430 99.666512 7.420787 3.212507 -7.890818 3.241219 3.494477 -6.656551 -2.265315 6.567874 -2.463757 0.000000 -0.000000 0.000000 -0.933232 -1.989912 -9.453551 -3.116145 -5.246829 -0.534478 6.279488 -4.982735 -3.021271 0.000000 -0.000000 0.000000 -0.564895 0.189377 -3.638585 3.235951 -2.381421 -7.086537 1.313286 -1.070991 -3.055613 1.693406 -15.733306 12.250428 6.258469 -15.921140 0.171987 -18.628165 11.749802 2.869768 -63.851342 -9.705328 7.882526 10.285010 -14.265129 14.808248 -6.937562 -7.378075 0.134133 17.864926 -5.512539 1.854051 61.063347 10.904112 10.191146 -8.425476 7.668768 4.175629 2.569780 0.583553 -6.405340 
0.501356 0.203104 0.983463 91.074444 4.197792 99.600045 7.423514 3.319173 -7.830050 3.236984 3.433175 -6.660393 -2.317718 6.488339 -2.512726 0.000000 -0.000000 0.000000 -0.886422 -2.082382 -9.381567 -3.127268 -5.215005 -0.540222 6.229901 -4.923229 -3.084245 0.000000 -0.000000 0.000000 -0.485017 0.181880 -3.516996 3.191203 -2.411800 -7.153981 1.344081 -1.030175 -3.050754 1.499091 -15.778546 12.270644 6.324743 -15.899101 0.168576 -18.655395 11.499056 2.848063 -63.823257 -9.627950 7.759956 10.349265 -14.146567 14.535344 -6.942528 -7.375804 0.241169 17.842919 -5.342566 1.885123 60.916282 10.838145 9.866263 -8.252367 7.709286 4.043362 2.560894 0.544760 -5.967574 
0.501671 0.202850 0.983236 91.102399 4.169305 99.555719 7.360113 3.433438 -7.812623 3.245684 3.436822 -6.621660 -2.488045 6.275863 -2.561563 0.000000 -0.000000 0.000000 -0.932321 -2.272627 -9.352840 -3.091719 -5.447790 -0.492782 6.360415 -4.463893 -3.047099 0.000000 -0.000000 0.000000 -0.575728 0.277184 -3.353651 3.323274 -2.528555 -7.295979 1.332316 -0.959591 -3.068760 1.676276 -15.372470 12.056847 6.148884 -16.492304 0.249573 -18.522535 11.204956 2.995398 -64.122673 -9.770350 7.777043 10.780805 -13.729074 14.376313 -7.360485 -7.695632 0.140539 18.237004 -5.983028 1.358571 60.482743 10.687688 9.287731 -8.493599 8.166314 5.702634 4.133486 0.347246 -5.810911 
0.501792 0.202717 0.983478 91.128178 4.132668 99.483841 7.294916 3.436877 -7.728693 3.278652 3.281753 -6.659545 -2.536697 6.392709 -2.525674 0.000000 -0.000000 0.000000 -0.944235 -2.283009 -9.234230 -3.122752 -5.386897 -0.556491 6.424612 -4.581801 -3.029592 0.000000 -0.000000 0.000000 -0.419564 0.411317 -2.820842 3.171586 -2.470714 -7.715236 1.205681 -1.066180 -3.285464 1.756853 -15.377088 12.028078 6.083253 -16.572240 0.342202 -18.282853 11.305075 3.135758 -64.042674 -9.654109 7.740041 10.452395 -14.077824 14.828761 -7.371470 -7.596985 -0.084916 18.317941 -6.181895 1.288365 60.380273 10.520724 9.131871 -8.316435 8.184377 5.888760 3.927800 0.408799 -5.852604 
0.501954 0.202684 0.983638 91.119103 4.134015 99.413234 7.270068 3.435747 -7.641050 3.311184 3.191268 -6.677671 -2.549446 6.462620 -2.573815 0.000000 -0.000000 0.000000 -0.938151 -2.280678 -9.163859 -3.129504 -5.336981 -0.550244 6.450840 -4.634595 -3.074807 0.000000 -0.000000 0.000000 -0.270805 0.481072 -2.565416 3.085978 -2.449401 -7.797540 1.128689 -1.174534 -3.478110 1.794006 -15.365142 12.066405 5.969754 -16.532769 0.328740 -18.276781 11.389673 3.196403 -63.882130 -9.582463 7.675190 10.254253 -14.320503 15.029604 -7.726068 -7.616474 -0.107326 18.478182 -6.172841 1.376535 60.089755 10.615163 9.006887 -8.108991 8.054243 5.748512 3.805291 0.439179 -5.808541 
0.502072 0.202777 0.983639 91.134712 4.129673 99.387665 7.261424 3.363034 -7.605675 3.318513 3.143996 -6.705969 -2.529712 6.542745 -2.584823 0.000000 -0.000000 0.000000 -0.956222 -2.271582 -9.122982 -3.117232 -5.326026 -0.587366 6.453271 -4.670784 -3.018723 0.000000 -0.000000 0.000000 -0.256478 0.445529 -2.604943 3.112780 -2.480980 -7.756623 1.125153 -1.255155 -3.407918 1.837027 -15.283224 12.088133 5.911375 -16.484555 0.238641 -18.370255 11.617909 3.155131 -63.759232 -9.634585 7.742094 10.109372 -14.528465 15.182980 -7.892301 -7.497536 -0.341876 18.690339 -6.157137 1.578874 59.753536 10.973683 9.093056 -7.952938 7.920936 5.620161 3.457538 0.466194 -5.924030 
0.502123 0.202817 0.983572 91.123054 4.121940 99.378441 7.239721 3.383815 -7.624680 3.320098 3.155185 -6.676932 -2.542319 6.490310 -2.612075 0.000000 -0.000000 0.000000 -0.967372 -2.314481 -9.146302 -3.120142 -5.328696 -0.569156 6.460005 -4.610598 -2.971534 0.000000 -0.000000 0.000000 -0.248879 0.479821 -2.496645 3.130347 -2.485049 -7.863413 1.143458 -1.262862 -3.409745 1.793287 -15.262221 12.070307 5.907765 -16.632624 0.198328 -18.337849 11.554384 3.230321 -63.866699 -9.706529 7.757884 10.187733 -14.435830 15.169927 -8.040939 -7.534778 -0.492232 18.741629 -6.181602 1.602849 59.587500 10.961098 9.005844 -7.885725 7.996053 5.801791 3.487727 0.464518 -6.005111 
0.502305 0.202850 0.983620 91.113932 4.121990 99.312897 7.235308 3.494193 -7.549717 3.306727 3.090867 -6.685408 -2.605611 6.420219 -2.621076 0.000000 -0.000000 0.000000 -0.974682 -2.386530 -9.073325 -3.114397 -5.372724 -0.559587 6.513061 -4.448154 -2.973451 0.000000 -0.000000 0.000000 -0.185195 0.489045 -2.251624 3.095988 -2.501902 -8.056381 1.162375 -1.135257 -3.469303 1.716651 -15.332370 12.048558 5.981036 -16.708043 0.308711 -18.288120 11.167929 3.273167 -64.005035 -9.575342 7.716994 10.360539 -14.196360 14.935435 -8.024718 -7.636977 -0.314831 18.601890 -6.086110 1.431643 59.617540 10.544514 8.710165 -7.826312 8.143387 5.942753 3.633689 0.464607 -5.844756 
